<svg xmlns="http://www.w3.org/2000/svg" xmlns:xlink="http://www.w3.org/1999/xlink" width="1200" zoomAndPan="magnify" viewBox="0 0 900 899.99999" height="1200" preserveAspectRatio="xMidYMid meet" version="1.0"><defs><clipPath id="0f7b5a607d"><path d="M 103.359375 512 L 166 512 L 166 737.855469 L 103.359375 737.855469 Z M 103.359375 512 " clip-rule="nonzero"/></clipPath><clipPath id="bffab1c920"><path d="M 734 512 L 796 512 L 796 737.855469 L 734 737.855469 Z M 734 512 " clip-rule="nonzero"/></clipPath><clipPath id="2d05ba3bbd"><path d="M 387 607 L 505 607 L 505 737.855469 L 387 737.855469 Z M 387 607 " clip-rule="nonzero"/></clipPath><clipPath id="9bd6113b78"><path d="M 518 607 L 636 607 L 636 737.855469 L 518 737.855469 Z M 518 607 " clip-rule="nonzero"/></clipPath><clipPath id="4f6fe3b44a"><path d="M 317 692 L 352 692 L 352 737.855469 L 317 737.855469 Z M 317 692 " clip-rule="nonzero"/></clipPath></defs><path fill="#71a0e2" d="M 600.035156 484.523438 L 523.097656 484.523438 L 503.792969 393.144531 L 580.730469 393.144531 Z M 600.035156 484.523438 " fill-opacity="1" fill-rule="nonzero"/><path fill="#aac8fd" d="M 713.734375 432.953125 L 372.378906 432.953125 C 371.71875 432.960938 371.066406 432.902344 370.417969 432.777344 C 369.773438 432.648438 369.144531 432.457031 368.539062 432.195312 C 367.933594 431.9375 367.359375 431.617188 366.820312 431.238281 C 366.277344 430.859375 365.785156 430.429688 365.335938 429.945312 C 364.886719 429.464844 364.492188 428.9375 364.152344 428.375 C 363.8125 427.808594 363.535156 427.214844 363.320312 426.589844 C 363.105469 425.964844 362.957031 425.328125 362.878906 424.671875 C 362.796875 424.019531 362.785156 423.363281 362.84375 422.703125 L 379.128906 187.734375 C 379.1875 187.050781 379.304688 186.375 379.484375 185.710938 C 379.664062 185.050781 379.90625 184.40625 380.203125 183.789062 C 380.503906 183.167969 380.855469 182.582031 381.265625 182.027344 C 381.671875 181.476562 382.128906 180.964844 382.628906 180.492188 C 383.132812 180.023438 383.671875 179.605469 384.253906 179.234375 C 384.832031 178.867188 385.441406 178.550781 386.078125 178.296875 C 386.71875 178.039062 387.375 177.84375 388.046875 177.707031 C 388.722656 177.570312 389.402344 177.496094 390.089844 177.488281 L 731.445312 177.488281 C 732.105469 177.480469 732.757812 177.539062 733.40625 177.664062 C 734.050781 177.792969 734.679688 177.988281 735.285156 178.246094 C 735.894531 178.503906 736.464844 178.824219 737.003906 179.203125 C 737.546875 179.582031 738.039062 180.011719 738.488281 180.496094 C 738.9375 180.976562 739.332031 181.503906 739.671875 182.066406 C 740.011719 182.632812 740.289062 183.226562 740.503906 183.851562 C 740.71875 184.476562 740.867188 185.113281 740.949219 185.769531 C 741.03125 186.421875 741.042969 187.078125 740.984375 187.734375 L 724.695312 422.703125 C 724.640625 423.390625 724.519531 424.066406 724.339844 424.726562 C 724.160156 425.390625 723.917969 426.035156 723.621094 426.652344 C 723.320312 427.273438 722.96875 427.859375 722.558594 428.410156 C 722.152344 428.964844 721.699219 429.476562 721.195312 429.945312 C 720.691406 430.417969 720.152344 430.835938 719.570312 431.207031 C 718.992188 431.574219 718.382812 431.890625 717.746094 432.144531 C 717.105469 432.402344 716.453125 432.597656 715.777344 432.734375 C 715.101562 432.871094 714.421875 432.941406 713.734375 432.953125 Z M 713.734375 432.953125 " fill-opacity="1" fill-rule="nonzero"/><path fill="#f5f6f7" d="M 375.523438 418.144531 L 391.179688 192.296875 L 728.304688 192.296875 L 712.644531 418.144531 Z M 375.523438 418.144531 " fill-opacity="1" fill-rule="nonzero"/><path fill="#aac8fd" d="M 735.125 474.261719 L 735.125 512.242188 L 123.824219 512.242188 C 123.269531 512.242188 122.726562 512.1875 122.183594 512.082031 C 121.644531 511.972656 121.117188 511.816406 120.609375 511.605469 C 120.101562 511.394531 119.617188 511.132812 119.15625 510.828125 C 118.699219 510.523438 118.273438 510.171875 117.886719 509.785156 C 117.496094 509.394531 117.148438 508.96875 116.839844 508.511719 C 116.535156 508.050781 116.277344 507.570312 116.066406 507.058594 C 115.855469 506.550781 115.695312 506.023438 115.589844 505.484375 C 115.480469 504.941406 115.425781 504.398438 115.429688 503.847656 L 115.429688 482.644531 C 115.429688 482.09375 115.484375 481.546875 115.589844 481.007812 C 115.699219 480.46875 115.859375 479.941406 116.070312 479.433594 C 116.28125 478.925781 116.539062 478.441406 116.847656 477.984375 C 117.152344 477.527344 117.5 477.105469 117.890625 476.714844 C 118.28125 476.324219 118.703125 475.976562 119.164062 475.671875 C 119.621094 475.367188 120.105469 475.109375 120.613281 474.898438 C 121.125 474.6875 121.648438 474.53125 122.1875 474.421875 C 122.730469 474.316406 123.273438 474.261719 123.824219 474.261719 Z M 735.125 474.261719 " fill-opacity="1" fill-rule="nonzero"/><g clip-path="url(#0f7b5a607d)"><path fill="#ffffff" d="M 124.976562 737.003906 L 103.652344 737.003906 L 144.285156 512.238281 L 165.605469 512.238281 Z M 124.976562 737.003906 " fill-opacity="1" fill-rule="nonzero"/></g><path fill="#aac8fd" d="M 164.5 474.261719 L 164.5 512.242188 L 775.800781 512.242188 C 776.355469 512.242188 776.898438 512.1875 777.441406 512.082031 C 777.980469 511.972656 778.507812 511.816406 779.015625 511.605469 C 779.527344 511.394531 780.011719 511.136719 780.46875 510.828125 C 780.925781 510.523438 781.351562 510.175781 781.742188 509.785156 C 782.132812 509.394531 782.480469 508.96875 782.785156 508.511719 C 783.089844 508.054688 783.351562 507.570312 783.5625 507.058594 C 783.773438 506.550781 783.929688 506.023438 784.039062 505.484375 C 784.144531 504.945312 784.199219 504.398438 784.199219 503.847656 L 784.199219 482.644531 C 784.199219 482.09375 784.144531 481.546875 784.035156 481.007812 C 783.929688 480.46875 783.769531 479.941406 783.558594 479.433594 C 783.347656 478.925781 783.085938 478.441406 782.78125 477.984375 C 782.472656 477.527344 782.125 477.105469 781.734375 476.714844 C 781.347656 476.324219 780.921875 475.976562 780.464844 475.671875 C 780.003906 475.367188 779.523438 475.109375 779.011719 474.898438 C 778.503906 474.6875 777.980469 474.53125 777.4375 474.421875 C 776.898438 474.316406 776.351562 474.261719 775.800781 474.261719 Z M 164.5 474.261719 " fill-opacity="1" fill-rule="nonzero"/><g clip-path="url(#bffab1c920)"><path fill="#ffffff" d="M 774.648438 737.003906 L 795.972656 737.003906 L 755.34375 512.238281 L 734.023438 512.238281 Z M 774.648438 737.003906 " fill-opacity="1" fill-rule="nonzero"/></g><path fill="#edf3fe" d="M 426.601562 460.128906 L 579.722656 460.128906 C 580.1875 460.128906 580.648438 460.175781 581.101562 460.265625 C 581.558594 460.355469 582 460.488281 582.429688 460.667969 C 582.855469 460.84375 583.261719 461.0625 583.648438 461.320312 C 584.035156 461.578125 584.390625 461.871094 584.71875 462.199219 C 585.046875 462.527344 585.339844 462.882812 585.597656 463.269531 C 585.855469 463.65625 586.074219 464.0625 586.25 464.492188 C 586.429688 464.917969 586.5625 465.359375 586.652344 465.816406 C 586.742188 466.269531 586.789062 466.730469 586.789062 467.195312 C 586.789062 467.660156 586.742188 468.121094 586.652344 468.574219 C 586.5625 469.03125 586.429688 469.472656 586.25 469.898438 C 586.074219 470.328125 585.855469 470.734375 585.597656 471.121094 C 585.339844 471.507812 585.046875 471.863281 584.71875 472.191406 C 584.390625 472.519531 584.035156 472.8125 583.648438 473.070312 C 583.265625 473.328125 582.855469 473.546875 582.429688 473.722656 C 582 473.902344 581.558594 474.035156 581.101562 474.125 C 580.648438 474.214844 580.1875 474.261719 579.722656 474.261719 L 426.601562 474.261719 C 426.136719 474.261719 425.679688 474.214844 425.222656 474.125 C 424.769531 474.035156 424.328125 473.902344 423.898438 473.722656 C 423.46875 473.546875 423.0625 473.328125 422.675781 473.070312 C 422.292969 472.8125 421.933594 472.519531 421.605469 472.191406 C 421.277344 471.863281 420.984375 471.507812 420.726562 471.121094 C 420.46875 470.734375 420.253906 470.328125 420.074219 469.898438 C 419.898438 469.472656 419.761719 469.03125 419.671875 468.574219 C 419.582031 468.121094 419.535156 467.660156 419.535156 467.195312 C 419.535156 466.730469 419.582031 466.269531 419.671875 465.816406 C 419.761719 465.359375 419.898438 464.917969 420.074219 464.492188 C 420.253906 464.0625 420.46875 463.65625 420.726562 463.269531 C 420.984375 462.882812 421.277344 462.527344 421.605469 462.199219 C 421.933594 461.871094 422.292969 461.578125 422.675781 461.320312 C 423.0625 461.0625 423.46875 460.84375 423.898438 460.667969 C 424.328125 460.488281 424.769531 460.355469 425.222656 460.265625 C 425.679688 460.175781 426.136719 460.128906 426.601562 460.128906 Z M 426.601562 460.128906 " fill-opacity="1" fill-rule="nonzero"/><g clip-path="url(#2d05ba3bbd)"><path fill="#002e70" d="M 484.875 631.179688 L 504.535156 737.003906 L 420.921875 737.003906 C 420.921875 737.003906 383.234375 688.480469 387.945312 655.117188 C 392.65625 621.75 455.792969 579.769531 484.875 631.179688 Z M 484.875 631.179688 " fill-opacity="1" fill-rule="nonzero"/></g><path fill="#002e70" d="M 558.355469 692.546875 C 547.371094 694.515625 536.304688 695.515625 525.148438 695.546875 C 402.269531 696.734375 346.53125 708.503906 311.988281 693.191406 C 281.078125 679.5 288.207031 609.578125 290.039062 595.035156 C 290.25 593.320312 290.386719 592.375 290.386719 592.375 L 301.238281 592.753906 L 439.359375 597.601562 C 439.359375 597.601562 443.265625 597.140625 449.929688 596.492188 C 474.039062 594.164062 534.171875 589.40625 575.378906 594.988281 C 622.636719 601.390625 643.601562 676.46875 558.355469 692.546875 Z M 558.355469 692.546875 " fill-opacity="1" fill-rule="nonzero"/><path fill="#00234c" d="M 558.355469 692.546875 C 547.371094 694.515625 536.304688 695.515625 525.148438 695.546875 C 402.269531 696.734375 346.53125 708.503906 311.988281 693.191406 C 281.078125 679.5 288.207031 609.578125 290.039062 595.035156 L 301.25 592.753906 L 439.371094 597.601562 C 439.371094 597.601562 443.277344 597.140625 449.941406 596.492188 L 449.957031 596.507812 C 451.320312 602.476562 453.109375 608.316406 455.324219 614.027344 C 457.539062 619.734375 460.15625 625.253906 463.175781 630.582031 C 466.195312 635.910156 469.582031 640.992188 473.34375 645.824219 C 477.101562 650.660156 481.191406 655.195312 485.613281 659.433594 C 511.519531 683.949219 544.402344 679.296875 558.355469 692.546875 Z M 558.355469 692.546875 " fill-opacity="1" fill-rule="nonzero"/><g clip-path="url(#9bd6113b78)"><path fill="#002e70" d="M 615.398438 631.179688 L 635.058594 737.003906 L 551.445312 737.003906 C 551.445312 737.003906 513.757812 688.480469 518.46875 655.117188 C 523.183594 621.75 586.316406 579.769531 615.398438 631.179688 Z M 615.398438 631.179688 " fill-opacity="1" fill-rule="nonzero"/></g><path fill="#f9c700" d="M 390.773438 622.152344 C 385.613281 621.890625 380.480469 621.363281 375.378906 620.570312 C 319.839844 612.027344 260.074219 631.171875 256.53125 603.792969 C 252.988281 576.414062 243.585938 439.234375 243.585938 439.234375 L 210.015625 435.691406 C 210.015625 435.691406 232.390625 370.355469 249.472656 354.425781 C 261.050781 343.644531 295.914062 336.800781 317.148438 333.496094 C 327.25 331.933594 334.261719 331.171875 334.261719 331.171875 L 371.5 335.292969 C 371.5 335.292969 376.429688 336.21875 383.738281 337.863281 C 402.765625 342.105469 437.917969 351.125 444.078125 360.90625 C 451.277344 372.316406 446.988281 418.796875 443.519531 447.953125 C 442.863281 453.417969 442.238281 458.265625 441.738281 462.175781 C 438.507812 486.90625 444.824219 585.882812 447.992188 594.980469 C 450.84375 603.1875 434.671875 624.328125 390.773438 622.152344 Z M 390.773438 622.152344 " fill-opacity="1" fill-rule="nonzero"/><path fill="#f9a200" d="M 261.066406 451.003906 C 261.066406 451.003906 259.496094 408.609375 259.105469 406.648438 C 258.710938 404.6875 225.738281 459.746094 225.738281 459.890625 " fill-opacity="1" fill-rule="nonzero"/><path fill="#f9a200" d="M 390.773438 622.152344 C 399.3125 582.445312 425.300781 525.339844 420.523438 484.53125 C 414.367188 431.894531 414.59375 418.425781 443.511719 447.964844 C 442.855469 453.425781 442.234375 458.277344 441.730469 462.1875 C 438.5 486.917969 444.820312 585.890625 447.984375 594.988281 C 450.84375 603.1875 434.671875 624.328125 390.773438 622.152344 Z M 390.773438 622.152344 " fill-opacity="1" fill-rule="nonzero"/><path fill="#ffffff" d="M 383.730469 337.871094 C 378.359375 344.382812 365.292969 354.957031 342.597656 353.265625 C 324.175781 351.910156 318.761719 340.398438 317.148438 333.507812 C 327.25 331.941406 334.261719 331.179688 334.261719 331.179688 L 371.5 335.304688 C 371.5 335.304688 376.429688 336.230469 383.730469 337.871094 Z M 383.730469 337.871094 " fill-opacity="1" fill-rule="nonzero"/><path fill="#ffbdb8" d="M 416.84375 274.808594 C 417.132812 277.609375 407.566406 280.851562 407.566406 280.851562 L 407.003906 298.082031 C 406.984375 298.648438 406.933594 299.207031 406.855469 299.765625 C 406.773438 300.324219 406.664062 300.878906 406.523438 301.421875 C 406.382812 301.96875 406.214844 302.507812 406.015625 303.035156 C 405.816406 303.5625 405.589844 304.078125 405.332031 304.582031 C 405.078125 305.082031 404.796875 305.570312 404.484375 306.042969 C 404.175781 306.515625 403.84375 306.96875 403.484375 307.402344 C 403.125 307.839844 402.746094 308.253906 402.339844 308.648438 C 401.9375 309.039062 401.511719 309.410156 401.066406 309.757812 C 400.621094 310.105469 400.160156 310.425781 399.679688 310.722656 C 399.199219 311.019531 398.707031 311.289062 398.195312 311.53125 C 397.6875 311.773438 397.167969 311.988281 396.632812 312.175781 C 396.101562 312.359375 395.558594 312.515625 395.007812 312.640625 C 394.460938 312.765625 393.90625 312.863281 393.34375 312.929688 C 392.785156 312.992188 392.222656 313.027344 391.65625 313.03125 C 391.09375 313.035156 390.53125 313.007812 389.96875 312.949219 C 389.410156 312.894531 388.851562 312.804688 388.300781 312.683594 L 375.371094 309.914062 C 375.371094 309.914062 374.550781 316.5625 374.03125 323.375 C 373.523438 327.539062 373.589844 331.695312 374.234375 335.839844 C 371.925781 337.453125 369.484375 338.828125 366.910156 339.972656 C 364.339844 341.117188 361.679688 342.007812 358.9375 342.640625 C 356.195312 343.277344 353.417969 343.644531 350.605469 343.75 C 347.789062 343.851562 344.992188 343.6875 342.210938 343.253906 C 333.371094 342.175781 327.289062 338.738281 326.300781 333.644531 C 325.3125 328.546875 329.644531 306.949219 328.566406 295.265625 C 327.484375 283.585938 337.585938 251.308594 338.285156 250.121094 C 338.984375 248.933594 359.1875 236.5 361.042969 234.53125 C 362.898438 232.5625 378.609375 227.65625 378.609375 227.65625 L 404.625 229.464844 C 411.390625 241.101562 407.558594 255.960938 408.152344 258.761719 C 408.746094 261.558594 416.554688 272.011719 416.84375 274.808594 Z M 416.84375 274.808594 " fill-opacity="1" fill-rule="nonzero"/><path fill="#cc697f" d="M 375.378906 309.917969 C 375.378906 309.917969 374.558594 316.5625 374.039062 323.375 C 372.519531 322.964844 370.847656 322.511719 369.003906 321.964844 C 367.722656 321.632812 366.472656 321.214844 365.246094 320.710938 C 364.023438 320.210938 362.839844 319.628906 361.691406 318.96875 C 360.546875 318.308594 359.449219 317.574219 358.402344 316.765625 C 357.355469 315.957031 356.371094 315.082031 355.441406 314.136719 C 354.511719 313.195312 353.648438 312.199219 352.855469 311.140625 C 352.0625 310.082031 351.339844 308.976562 350.695312 307.820312 C 350.050781 306.667969 349.484375 305.472656 349 304.242188 C 348.515625 303.011719 348.117188 301.753906 347.800781 300.46875 C 347.800781 300.074219 367.925781 307.921875 375.378906 309.917969 Z M 375.378906 309.917969 " fill-opacity="1" fill-rule="nonzero"/><path fill="#002e70" d="M 387.257812 241.003906 C 387.257812 241.003906 385.980469 258.667969 384.3125 258.085938 C 382.648438 257.507812 380.976562 245.542969 369.199219 249.554688 C 357.425781 253.570312 361.054688 273.394531 376.65625 272.710938 C 376.65625 272.710938 369.59375 311.765625 338.238281 309.851562 C 306.882812 307.9375 299.964844 285.269531 293.925781 269.21875 C 287.890625 253.167969 281.414062 244.339844 286.28125 237.273438 C 291.144531 230.207031 308.359375 226.824219 308.359375 226.824219 C 308.359375 226.824219 294.820312 208.71875 301.582031 195.328125 C 308.34375 181.9375 359.730469 180.902344 371.949219 178.707031 C 384.167969 176.511719 397.414062 161.78125 402.273438 165.460938 C 407.128906 169.140625 405.21875 198.136719 405.21875 198.136719 C 405.21875 198.136719 429.949219 186.066406 433.480469 192.25 C 437.011719 198.433594 419.203125 219.1875 419.203125 219.1875 C 419.203125 219.1875 427.59375 214.339844 429.359375 219.628906 C 431.128906 224.917969 416.402344 238.253906 387.257812 241.003906 Z M 387.257812 241.003906 " fill-opacity="1" fill-rule="nonzero"/><path stroke-linecap="round" transform="matrix(2.308807, 0, 0, 2.308617, 103.652899, 164.855548)" fill="none" stroke-linejoin="round" d="M 114.716723 39.95557 C 117.52357 38.935276 119.860071 40.720368 118.457493 43.69665 " stroke="#cc697f" stroke-width="1.318" stroke-opacity="1" stroke-miterlimit="4"/><path stroke-linecap="round" transform="matrix(2.308807, 0, 0, 2.308617, 103.652899, 164.855548)" fill="none" stroke-linejoin="round" d="M 121.306637 55.682993 C 121.306637 55.682993 124.069495 58.148281 127.128434 56.532392 " stroke="#cc697f" stroke-width="1.318" stroke-opacity="1" stroke-miterlimit="4"/><path fill="#ffbdb8" d="M 511.5 449.089844 C 511.5 449.089844 520.332031 437.753906 525.191406 435.105469 C 530.046875 432.457031 534.023438 437.3125 534.023438 437.3125 C 534.023438 437.3125 540.207031 432.464844 545.066406 435.546875 C 545.730469 435.90625 546.34375 436.339844 546.90625 436.847656 C 547.464844 437.355469 547.957031 437.921875 548.378906 438.546875 C 548.800781 439.175781 549.140625 439.84375 549.402344 440.554688 C 549.660156 441.265625 549.832031 441.996094 549.914062 442.75 C 549.914062 442.75 556.683594 439.023438 559.039062 441.703125 C 561.394531 444.378906 560.804688 449.972656 560.804688 449.972656 C 560.804688 449.972656 564.925781 449.238281 566.105469 452.328125 C 567.28125 455.414062 565.664062 464.085938 563.898438 465.34375 C 562.132812 466.605469 559.777344 462.1875 559.777344 462.1875 C 559.777344 462.1875 531.363281 472.347656 523.710938 474.261719 " fill-opacity="1" fill-rule="nonzero"/><path fill="#f9c700" d="M 531.417969 470.824219 C 530.046875 482.003906 506.683594 515.589844 494.316406 522.738281 C 481.949219 529.886719 461.15625 526.949219 459.390625 507.527344 C 457.628906 488.105469 475.882812 461.789062 475.882812 461.789062 C 476.855469 460.9375 477.78125 460.117188 478.679688 459.34375 C 483.558594 454.910156 488.707031 450.8125 494.117188 447.050781 C 501.207031 442.433594 505.222656 442.308594 511.992188 443.15625 C 522.976562 444.527344 532.800781 459.644531 531.417969 470.824219 Z M 531.417969 470.824219 " fill-opacity="1" fill-rule="nonzero"/><path fill="#f9a200" d="M 496.492188 482.996094 C 493.027344 479.96875 485.101562 468.769531 478.679688 459.34375 C 483.558594 454.910156 488.707031 450.8125 494.117188 447.050781 C 504.828125 462.734375 502.195312 487.996094 496.492188 482.996094 Z M 496.492188 482.996094 " fill-opacity="1" fill-rule="nonzero"/><path fill="#f9c700" d="M 444.664062 361.996094 C 423.039062 349.148438 402.070312 388.984375 417.96875 427.058594 C 433.867188 465.132812 448.980469 509.097656 464.683594 523.621094 C 480.386719 538.144531 521.210938 520.871094 497.070312 470.628906 C 472.925781 420.386719 455.070312 368.179688 444.664062 361.996094 Z M 444.664062 361.996094 " fill-opacity="1" fill-rule="nonzero"/><g clip-path="url(#4f6fe3b44a)"><path fill="#002e70" d="M 317.148438 692.796875 L 351.921875 692.796875 L 351.921875 737.742188 L 317.148438 737.742188 Z M 317.148438 692.796875 " fill-opacity="1" fill-rule="nonzero"/></g><path fill="#71a0e2" d="M 553.820312 699.027344 C 553.820312 699.597656 553.792969 700.171875 553.734375 700.742188 C 553.679688 701.3125 553.59375 701.882812 553.480469 702.445312 C 553.371094 703.007812 553.230469 703.5625 553.0625 704.113281 C 552.898438 704.660156 552.703125 705.199219 552.484375 705.730469 C 552.265625 706.261719 552.019531 706.777344 551.75 707.285156 C 551.476562 707.789062 551.183594 708.28125 550.863281 708.757812 C 550.546875 709.238281 550.203125 709.695312 549.839844 710.140625 C 549.476562 710.585938 549.089844 711.007812 548.6875 711.414062 C 548.28125 711.820312 547.855469 712.207031 547.410156 712.570312 C 546.96875 712.933594 546.507812 713.273438 546.03125 713.59375 C 545.554688 713.914062 545.0625 714.207031 544.554688 714.476562 C 544.050781 714.75 543.53125 714.992188 543 715.214844 C 542.472656 715.433594 541.929688 715.625 541.382812 715.792969 C 540.832031 715.960938 540.277344 716.097656 539.714844 716.210938 C 539.152344 716.324219 538.585938 716.40625 538.011719 716.464844 C 537.441406 716.519531 536.871094 716.546875 536.296875 716.546875 L 421.777344 716.546875 C 419.867188 716.855469 417.957031 716.855469 416.042969 716.546875 C 413.425781 716.851562 410.808594 716.851562 408.195312 716.546875 L 221.953125 716.546875 C 220.816406 716.527344 219.683594 716.453125 218.554688 716.332031 C 217.425781 716.207031 216.304688 716.03125 215.191406 715.808594 C 214.082031 715.582031 212.980469 715.308594 211.890625 714.984375 C 210.804688 714.65625 209.734375 714.285156 208.679688 713.863281 C 207.625 713.441406 206.589844 712.972656 205.578125 712.457031 C 204.566406 711.941406 203.582031 711.382812 202.621094 710.777344 C 201.660156 710.171875 200.726562 709.527344 199.824219 708.835938 C 198.921875 708.148438 198.054688 707.417969 197.21875 706.652344 C 196.378906 705.882812 195.582031 705.082031 194.816406 704.238281 C 194.054688 703.398438 193.328125 702.527344 192.644531 701.621094 C 191.960938 700.714844 191.316406 699.78125 190.71875 698.816406 C 190.117188 697.851562 189.5625 696.863281 189.050781 695.851562 C 188.542969 694.835938 188.078125 693.800781 187.660156 692.746094 C 187.246094 691.6875 186.875 690.617188 186.558594 689.527344 C 186.238281 688.4375 185.96875 687.335938 185.75 686.21875 C 185.527344 685.105469 185.359375 683.984375 185.242188 682.855469 L 165.738281 466.183594 C 165.617188 465.117188 165.554688 464.046875 165.546875 462.972656 C 165.539062 461.898438 165.589844 460.824219 165.695312 459.753906 C 165.804688 458.6875 165.96875 457.625 166.1875 456.574219 C 166.410156 455.523438 166.683594 454.484375 167.015625 453.460938 C 167.34375 452.441406 167.730469 451.4375 168.167969 450.457031 C 168.605469 449.472656 169.09375 448.519531 169.632812 447.589844 C 170.171875 446.660156 170.757812 445.761719 171.394531 444.894531 C 172.027344 444.027344 172.707031 443.195312 173.429688 442.402344 C 174.152344 441.605469 174.917969 440.851562 175.722656 440.136719 C 176.523438 439.425781 177.363281 438.757812 178.238281 438.132812 C 179.113281 437.507812 180.019531 436.933594 180.957031 436.40625 C 181.894531 435.878906 182.855469 435.402344 183.84375 434.976562 C 184.828125 434.550781 185.835938 434.179688 186.863281 433.859375 C 187.890625 433.542969 188.929688 433.28125 189.984375 433.074219 C 191.039062 432.867188 192.101562 432.714844 193.171875 432.621094 C 194.242188 432.527344 195.316406 432.492188 196.390625 432.511719 L 382.609375 432.511719 C 386.730469 432.515625 390.726562 433.222656 394.597656 434.625 C 396.253906 435.226562 397.863281 435.9375 399.421875 436.761719 C 400.980469 437.589844 402.472656 438.519531 403.902344 439.554688 C 405.332031 440.585938 406.679688 441.714844 407.949219 442.941406 C 409.21875 444.164062 410.398438 445.46875 411.484375 446.859375 C 412.574219 448.246094 413.558594 449.703125 414.441406 451.230469 C 415.324219 452.757812 416.097656 454.335938 416.761719 455.972656 C 417.421875 457.605469 417.96875 459.277344 418.394531 460.988281 C 418.824219 462.699219 419.128906 464.433594 419.316406 466.183594 L 438.710938 681.515625 L 536.292969 681.515625 C 536.863281 681.515625 537.4375 681.546875 538.007812 681.601562 C 538.578125 681.660156 539.144531 681.742188 539.707031 681.855469 C 540.269531 681.964844 540.824219 682.105469 541.375 682.273438 C 541.921875 682.4375 542.464844 682.632812 542.992188 682.851562 C 543.523438 683.070312 544.039062 683.316406 544.546875 683.585938 C 545.050781 683.855469 545.542969 684.152344 546.019531 684.46875 C 546.496094 684.789062 546.957031 685.128906 547.402344 685.492188 C 547.84375 685.855469 548.269531 686.242188 548.675781 686.644531 C 549.082031 687.050781 549.464844 687.476562 549.828125 687.917969 C 550.195312 688.363281 550.535156 688.824219 550.855469 689.300781 C 551.171875 689.777344 551.46875 690.265625 551.738281 690.773438 C 552.011719 691.277344 552.253906 691.796875 552.476562 692.324219 C 552.695312 692.855469 552.886719 693.394531 553.054688 693.941406 C 553.222656 694.492188 553.363281 695.046875 553.476562 695.609375 C 553.585938 696.171875 553.671875 696.738281 553.730469 697.308594 C 553.785156 697.878906 553.8125 698.453125 553.816406 699.027344 Z M 553.820312 699.027344 " fill-opacity="1" fill-rule="nonzero"/><path fill="#aac8fd" d="M 553.820312 699.027344 C 553.820312 699.597656 553.792969 700.171875 553.734375 700.742188 C 553.679688 701.3125 553.59375 701.882812 553.480469 702.445312 C 553.371094 703.007812 553.230469 703.5625 553.0625 704.113281 C 552.898438 704.660156 552.703125 705.199219 552.484375 705.730469 C 552.265625 706.261719 552.019531 706.777344 551.75 707.285156 C 551.476562 707.789062 551.183594 708.28125 550.863281 708.757812 C 550.546875 709.238281 550.203125 709.695312 549.839844 710.140625 C 549.476562 710.585938 549.089844 711.007812 548.6875 711.414062 C 548.28125 711.820312 547.855469 712.207031 547.410156 712.570312 C 546.96875 712.933594 546.507812 713.273438 546.03125 713.59375 C 545.554688 713.914062 545.0625 714.207031 544.554688 714.476562 C 544.050781 714.75 543.53125 714.992188 543 715.214844 C 542.472656 715.433594 541.929688 715.625 541.382812 715.792969 C 540.832031 715.960938 540.277344 716.097656 539.714844 716.210938 C 539.152344 716.324219 538.585938 716.40625 538.011719 716.464844 C 537.441406 716.519531 536.871094 716.546875 536.296875 716.546875 L 431.734375 716.546875 C 430.597656 716.527344 429.46875 716.453125 428.339844 716.332031 C 427.210938 716.207031 426.089844 716.03125 424.976562 715.808594 C 423.863281 715.582031 422.761719 715.308594 421.675781 714.980469 C 420.585938 714.65625 419.515625 714.285156 418.460938 713.863281 C 417.40625 713.441406 416.375 712.972656 415.363281 712.457031 C 414.351562 711.941406 413.363281 711.382812 412.402344 710.777344 C 411.441406 710.171875 410.511719 709.523438 409.609375 708.835938 C 408.707031 708.148438 407.835938 707.417969 407 706.652344 C 406.164062 705.882812 405.363281 705.078125 404.601562 704.238281 C 403.835938 703.398438 403.113281 702.527344 402.429688 701.621094 C 401.742188 700.714844 401.101562 699.78125 400.5 698.816406 C 399.902344 697.851562 399.34375 696.863281 398.835938 695.847656 C 398.324219 694.835938 397.859375 693.800781 397.445312 692.742188 C 397.027344 691.6875 396.660156 690.613281 396.339844 689.527344 C 396.019531 688.4375 395.75 687.335938 395.53125 686.21875 C 395.3125 685.105469 395.144531 683.984375 395.023438 682.855469 L 375.523438 466.183594 C 375.335938 464.539062 375.285156 462.890625 375.371094 461.234375 C 375.457031 459.582031 375.675781 457.945312 376.03125 456.328125 C 376.382812 454.707031 376.867188 453.128906 377.480469 451.589844 C 378.09375 450.054688 378.832031 448.574219 379.6875 447.15625 C 380.542969 445.738281 381.511719 444.402344 382.589844 443.144531 C 383.664062 441.882812 384.835938 440.722656 386.105469 439.65625 C 387.375 438.589844 388.71875 437.636719 390.144531 436.792969 C 391.570312 435.945312 393.054688 435.222656 394.597656 434.625 C 396.257812 435.226562 397.867188 435.9375 399.425781 436.761719 C 400.984375 437.589844 402.476562 438.519531 403.90625 439.554688 C 405.332031 440.585938 406.683594 441.714844 407.953125 442.941406 C 409.222656 444.164062 410.402344 445.46875 411.488281 446.859375 C 412.574219 448.246094 413.5625 449.703125 414.445312 451.230469 C 415.328125 452.757812 416.101562 454.335938 416.761719 455.972656 C 417.425781 457.605469 417.96875 459.277344 418.398438 460.988281 C 418.824219 462.699219 419.132812 464.433594 419.316406 466.183594 L 438.710938 681.515625 L 536.292969 681.515625 C 536.867188 681.515625 537.4375 681.546875 538.011719 681.601562 C 538.582031 681.660156 539.148438 681.742188 539.710938 681.855469 C 540.273438 681.964844 540.828125 682.105469 541.378906 682.273438 C 541.925781 682.4375 542.464844 682.632812 542.996094 682.851562 C 543.523438 683.070312 544.042969 683.316406 544.550781 683.585938 C 545.054688 683.855469 545.546875 684.152344 546.023438 684.46875 C 546.5 684.789062 546.960938 685.128906 547.402344 685.492188 C 547.847656 685.855469 548.273438 686.242188 548.675781 686.644531 C 549.082031 687.050781 549.46875 687.476562 549.832031 687.917969 C 550.195312 688.363281 550.539062 688.824219 550.855469 689.300781 C 551.175781 689.777344 551.472656 690.265625 551.742188 690.773438 C 552.011719 691.277344 552.257812 691.796875 552.476562 692.324219 C 552.699219 692.855469 552.890625 693.394531 553.058594 693.941406 C 553.226562 694.492188 553.363281 695.046875 553.476562 695.609375 C 553.589844 696.171875 553.675781 696.738281 553.730469 697.308594 C 553.789062 697.878906 553.816406 698.453125 553.816406 699.027344 Z M 553.820312 699.027344 " fill-opacity="1" fill-rule="nonzero"/></svg>