<svg xmlns="http://www.w3.org/2000/svg" xmlns:xlink="http://www.w3.org/1999/xlink" width="1200" zoomAndPan="magnify" viewBox="0 0 900 899.99999" height="1200" preserveAspectRatio="xMidYMid meet" version="1.0"><path fill="#3b4793" d="M 308.496094 659 C 308.496094 659 264.398438 652.304688 221.179688 654.976562 C 177.960938 657.648438 162.980469 659 160.746094 684.941406 C 158.511719 710.882812 169.390625 721.089844 174.628906 723.871094 C 179.867188 726.613281 226.636719 726.613281 226.636719 726.613281 C 226.636719 726.613281 342.964844 745.785156 352.375 726.980469 C 361.789062 708.210938 364.902344 684.503906 357.285156 675.539062 C 349.664062 666.613281 308.496094 659 308.496094 659 Z M 308.496094 659 " fill-opacity="1" fill-rule="nonzero"/><path fill="#ffc7c7" d="M 319.230469 663.792969 C 319.230469 663.792969 251.726562 659.804688 234.730469 670.085938 C 217.699219 680.367188 221.730469 707.222656 227.113281 716.148438 C 232.496094 725.078125 258.464844 729.136719 267.402344 730.453125 C 276.339844 731.808594 319.777344 746.992188 332.339844 728.222656 C 344.867188 709.453125 351.9375 671.113281 319.230469 663.757812 Z M 319.230469 663.792969 " fill-opacity="1" fill-rule="nonzero"/><path fill="#3b4793" d="M 714.941406 711.722656 C 714.355469 712.453125 713.730469 713.1875 713.074219 713.917969 C 709.59375 717.832031 705.382812 721.417969 700.65625 724.710938 C 675.933594 741.871094 636.671875 750.503906 606.894531 751.382812 C 602.644531 751.492188 598.578125 751.492188 594.769531 751.273438 C 588.871094 750.980469 583.636719 750.320312 579.277344 749.296875 C 547.960938 741.90625 549.058594 750.652344 509.429688 756.6875 C 497.964844 758.445312 485.148438 757.859375 471.996094 756.285156 C 449.253906 753.578125 425.445312 747.90625 405.667969 746.1875 C 398.929688 745.601562 392.628906 745.457031 387.023438 746.078125 C 385.707031 746.222656 384.425781 746.40625 383.179688 746.625 C 352.304688 752.296875 291.832031 740.957031 270.332031 709.746094 C 248.832031 678.503906 268.976562 625.890625 309.960938 582.9375 C 333.039062 558.753906 359.957031 534.789062 379.003906 518.507812 C 393.765625 505.886719 403.835938 497.875 403.835938 497.875 C 403.835938 497.875 410.429688 506.179688 420.207031 516.605469 C 436.175781 533.65625 460.605469 556.449219 478.515625 558.097656 C 507.378906 560.765625 530.234375 567.5 567.847656 580.230469 C 576.675781 583.230469 586.859375 586.230469 597.625 589.414062 C 632.824219 599.730469 674.433594 611.4375 695.601562 627.828125 C 723.292969 649.234375 741.789062 678.210938 714.90625 711.757812 Z M 714.941406 711.722656 " fill-opacity="1" fill-rule="nonzero"/><path fill="#202a5e" d="M 597.625 589.378906 C 588.359375 592.011719 574.257812 592.707031 552.832031 586.5625 C 508.769531 573.902344 401.75 546.167969 401.75 546.167969 C 401.75 546.167969 375.339844 616.855469 376.21875 661.5625 C 376.878906 695.367188 440.828125 737.625 471.960938 756.210938 C 449.214844 753.503906 425.410156 747.832031 405.632812 746.113281 L 342.671875 668.40625 L 387.023438 746.003906 C 385.707031 746.152344 384.425781 746.332031 383.179688 746.554688 C 352.304688 752.222656 291.832031 740.882812 270.332031 709.675781 C 248.832031 678.429688 268.976562 625.816406 309.960938 582.867188 C 333.039062 558.683594 359.957031 534.71875 379.003906 518.4375 C 392.59375 517.59375 406.398438 516.972656 420.207031 516.535156 C 436.175781 533.582031 460.605469 556.375 478.515625 558.023438 C 507.378906 560.695312 530.234375 567.425781 567.847656 580.15625 C 576.675781 583.15625 586.859375 586.15625 597.625 589.339844 Z M 597.625 589.378906 " fill-opacity="1" fill-rule="nonzero"/><path fill="#202a5e" d="M 502.507812 687.976562 C 535.25 717.027344 566.019531 739.710938 606.894531 751.347656 C 602.644531 751.457031 598.578125 751.457031 594.769531 751.234375 C 514.59375 724.34375 436.175781 656.183594 435.773438 649.929688 C 435.335938 642.757812 462.660156 652.597656 502.472656 687.941406 Z M 502.507812 687.976562 " fill-opacity="1" fill-rule="nonzero"/><path stroke-linecap="butt" transform="matrix(0.366264, 0, 0, 0.365864, 77.971078, 86.533566)" fill-opacity="1" fill="#ffffff" fill-rule="nonzero" stroke-linejoin="miter" d="M 1734.003225 1714.799994 C 1724.500605 1725.498116 1713.003607 1735.299388 1700.098814 1744.299903 C 1709.804072 1735.897287 1721.397055 1725.903833 1734.003225 1714.799994 Z M 1734.003225 1714.799994 " stroke="#000000" stroke-width="1" stroke-opacity="1" stroke-miterlimit="10"/><path fill="#97a2db" d="M 403.324219 620 C 412.957031 627.023438 423.027344 633.464844 433.429688 639.355469 C 436.359375 641 439.328125 642.609375 442.292969 644.183594 C 442.917969 644.511719 443.722656 644.332031 444.089844 643.707031 C 444.453125 643.085938 444.234375 642.246094 443.613281 641.914062 C 433.027344 636.390625 422.773438 630.246094 412.917969 623.550781 C 410.136719 621.648438 407.390625 619.746094 404.679688 617.769531 C 404.09375 617.367188 403.214844 617.660156 402.882812 618.246094 C 402.554688 618.828125 402.773438 619.632812 403.359375 620.039062 Z M 403.324219 620 " fill-opacity="1" fill-rule="nonzero"/><path fill="#97a2db" d="M 459.839844 651.390625 C 469.289062 656.292969 478.882812 660.902344 488.554688 665.292969 C 498.222656 669.683594 508.113281 673.78125 518.039062 677.625 C 528 681.464844 538.070312 685.050781 548.253906 688.34375 C 558.363281 691.636719 568.582031 694.636719 578.875 697.382812 C 589.164062 700.125 599.53125 702.539062 609.933594 704.699219 C 620.335938 706.855469 612.535156 705.246094 613.816406 705.503906 C 615.097656 705.757812 616.160156 703.308594 614.511719 702.980469 C 604.109375 700.894531 593.78125 698.550781 583.527344 695.878906 C 573.234375 693.210938 562.976562 690.28125 552.832031 687.0625 C 542.722656 683.878906 532.722656 680.40625 522.800781 676.636719 C 512.875 672.867188 503.019531 668.84375 493.316406 664.5625 C 483.644531 660.28125 474.050781 655.746094 464.636719 650.917969 C 463.464844 650.332031 462.292969 649.707031 461.121094 649.085938 C 459.617188 648.320312 458.300781 650.585938 459.800781 651.355469 Z M 459.839844 651.390625 " fill-opacity="1" fill-rule="nonzero"/><path fill="#97a2db" d="M 499.246094 650.476562 C 507.890625 655.015625 517.085938 658.488281 526.609375 660.757812 C 529.28125 661.378906 531.957031 661.929688 534.628906 662.367188 C 535.324219 662.476562 536.058594 662.183594 536.242188 661.453125 C 536.425781 660.722656 536.019531 659.953125 535.324219 659.84375 C 525.910156 658.304688 516.683594 655.597656 507.929688 651.757812 C 505.4375 650.660156 502.984375 649.488281 500.566406 648.207031 C 498.148438 646.929688 499.136719 648.0625 498.773438 648.683594 C 498.40625 649.304688 498.625 650.148438 499.246094 650.476562 Z M 499.246094 650.476562 " fill-opacity="1" fill-rule="nonzero"/><path fill="#97a2db" d="M 650.808594 631.707031 C 643.484375 633.097656 636.085938 634.085938 628.613281 634.636719 C 626.488281 634.78125 624.402344 634.929688 622.277344 635 C 620.152344 635.074219 620.957031 635.585938 620.957031 636.316406 C 620.957031 637.050781 621.542969 637.671875 622.277344 637.636719 C 629.929688 637.304688 637.550781 636.539062 645.132812 635.367188 C 647.253906 635.039062 649.378906 634.671875 651.503906 634.269531 C 652.199219 634.121094 652.601562 633.28125 652.417969 632.660156 C 652.238281 632.039062 651.503906 631.597656 650.808594 631.746094 Z M 650.808594 631.707031 " fill-opacity="1" fill-rule="nonzero"/><path fill="#000000" d="M 290.808594 628.121094 C 287.988281 631.816406 285.203125 635.550781 282.382812 639.246094 C 281.871094 639.902344 283.003906 640.5625 283.519531 639.902344 C 286.339844 636.207031 289.121094 632.476562 291.941406 628.78125 C 292.457031 628.121094 291.320312 627.464844 290.808594 628.121094 Z M 290.808594 628.121094 " fill-opacity="1" fill-rule="nonzero"/><path fill="#000000" d="M 280.039062 665.84375 C 279.5625 673.5625 279.085938 681.429688 280.917969 689.003906 C 282.75 696.574219 282.125 693.171875 283.003906 695.148438 C 283.335938 695.917969 284.472656 695.257812 284.140625 694.492188 C 281.027344 687.539062 280.699219 679.746094 280.992188 672.28125 C 281.066406 670.125 281.210938 668.003906 281.359375 665.84375 C 281.503906 663.683594 280.113281 665 280.039062 665.84375 Z M 280.039062 665.84375 " fill-opacity="1" fill-rule="nonzero"/><path fill="#ff9d00" d="M 603.15625 470.507812 C 606.417969 487.921875 594.695312 503.214844 581.253906 509.070312 C 569.167969 514.375 542.796875 492.570312 537.597656 488.144531 C 537.011719 487.628906 536.71875 487.375 536.71875 487.375 C 536.71875 487.375 536.644531 487.628906 536.570312 488.105469 C 535.691406 492.167969 531.480469 512.144531 532.578125 522.753906 C 533.273438 529.632812 531.957031 535.230469 531.957031 541.707031 C 535.691406 549.753906 554.003906 570.753906 555.140625 575.511719 C 556.347656 580.449219 546.460938 575.328125 538.988281 576.023438 C 538.183594 576.097656 537.191406 576.242188 536.019531 576.460938 C 526.425781 578.21875 505.328125 584.109375 479.105469 586.121094 C 449.691406 588.390625 444.199219 595.707031 416.179688 594.28125 C 388.160156 592.851562 346.40625 578.4375 340.984375 581.402344 C 338.496094 582.753906 330.582031 587.074219 322.378906 591.097656 C 312.671875 595.890625 302.636719 600.28125 300.953125 598.925781 C 298.71875 597.171875 302.089844 578.65625 304.210938 568.121094 C 304.210938 567.71875 304.285156 567.351562 304.359375 566.988281 C 304.617188 565.558594 305.054688 563.585938 305.675781 561.207031 C 305.675781 561.132812 305.675781 561.097656 305.675781 561.058594 C 305.675781 560.949219 305.675781 560.914062 305.675781 560.914062 C 309.230469 546.753906 318.019531 518.179688 325.75 497.070312 C 326.628906 494.65625 327.433594 492.386719 328.167969 490.265625 C 332.746094 476.800781 334.355469 468.386719 334.941406 464.363281 C 335.199219 462.496094 335.273438 461.542969 335.273438 461.433594 C 335.273438 461.363281 335.273438 461.289062 335.234375 461.214844 C 334.355469 456.53125 320.402344 381.238281 320.070312 355.445312 C 319.777344 333.054688 332.339844 321.164062 342.707031 312.234375 C 344.683594 310.550781 346.550781 308.941406 348.273438 307.441406 C 359.003906 297.855469 402.957031 282.160156 402.957031 282.160156 C 402.957031 282.160156 403.617188 266.28125 415.8125 261.234375 C 428.007812 256.148438 450.609375 260.722656 450.609375 260.722656 C 450.609375 260.722656 450.9375 270.636719 451.890625 273.378906 C 452.84375 276.125 454.527344 291.710938 465.113281 302.757812 C 475.699219 313.808594 478.8125 311.136719 481.484375 315.894531 C 484.15625 320.648438 484.488281 321.929688 484.488281 321.929688 C 484.488281 321.929688 486.171875 315.929688 488.003906 314.320312 C 489.835938 312.746094 494.816406 307.550781 497.234375 300.929688 C 499.652344 294.308594 503.644531 282.746094 503.644531 282.746094 C 503.644531 282.746094 511.335938 285.820312 513.238281 288.34375 C 515.144531 290.832031 522.03125 305.980469 521.371094 309.308594 L 520.710938 312.636719 C 520.710938 312.636719 540.746094 330.347656 544.1875 335.796875 C 547.59375 341.25 599.933594 453.058594 603.195312 470.433594 Z M 603.15625 470.507812 " fill-opacity="1" fill-rule="nonzero"/><path fill="#f26a46" d="M 537.597656 488.179688 C 537.597656 488.179688 536.535156 488.179688 536.535156 488.179688 L 491.300781 486.605469 L 500.457031 526.265625 L 463.867188 513.425781 L 488.917969 486.128906 C 488.917969 486.128906 367.429688 546.425781 354.0625 544.15625 C 345.234375 542.65625 334.464844 511.742188 328.167969 490.410156 C 332.746094 476.949219 334.355469 468.53125 334.941406 464.507812 L 395.484375 435.164062 L 526.386719 393.824219 C 526.386719 393.824219 532.066406 424.8125 531.148438 433.664062 C 530.269531 442.484375 537.484375 487.742188 537.597656 488.253906 Z M 537.597656 488.179688 " fill-opacity="1" fill-rule="nonzero"/><path fill="#ffc7c7" d="M 459.363281 430.777344 C 459.363281 430.777344 489.980469 410.25 495.476562 407.945312 C 500.96875 405.640625 539.574219 407.03125 539.355469 408.164062 C 539.132812 409.300781 537.230469 410.25 536.3125 410.652344 C 535.398438 411.054688 519.0625 419.214844 519.0625 419.214844 C 519.0625 419.214844 525.949219 419.617188 528.109375 420.238281 C 530.308594 420.898438 543.933594 427.082031 543.640625 430.117188 C 543.308594 433.152344 535.03125 430.300781 533.675781 430.007812 C 532.320312 429.714844 521.625 429.386719 521.625 429.386719 C 521.625 429.386719 526.058594 433.300781 526.167969 435.238281 C 526.277344 437.179688 522.945312 440.105469 522.945312 440.105469 C 522.945312 440.105469 523.203125 445.300781 521.40625 447.238281 C 519.613281 449.179688 517.046875 448.886719 517.046875 448.886719 C 517.046875 448.886719 516.058594 451.300781 514.996094 452.105469 C 513.933594 452.910156 508.550781 450.09375 507.636719 450.605469 C 506.71875 451.117188 501.996094 456.605469 493.242188 456.933594 C 484.523438 457.265625 482.398438 456.75 478.152344 457.886719 C 473.902344 459.019531 463.902344 464.945312 463.902344 464.945312 L 459.324219 430.664062 Z M 459.363281 430.777344 " fill-opacity="1" fill-rule="nonzero"/><path fill="#ff9d00" d="M 470.351562 474.863281 C 467.824219 480.679688 424.601562 500.4375 394.351562 507.679688 C 364.097656 514.925781 356.84375 507.09375 349.226562 492.203125 C 341.609375 477.3125 337.542969 473.910156 335.273438 461.542969 C 335.273438 461.472656 335.273438 461.398438 335.234375 461.324219 C 334.355469 456.640625 320.402344 381.347656 320.070312 355.554688 C 319.777344 333.164062 332.339844 321.273438 342.707031 312.34375 C 342.707031 312.34375 371.75 306.417969 380.726562 334.734375 C 389.699219 363.054688 398.378906 442.007812 398.378906 442.007812 C 398.378906 442.007812 425.410156 435.019531 441.890625 429.75 C 458.371094 424.484375 459.179688 420.566406 461.449219 423.75 C 463.757812 426.933594 472.878906 469.082031 470.3125 474.898438 Z M 470.351562 474.863281 " fill-opacity="1" fill-rule="nonzero"/><path fill="#af2262" d="M 369.003906 318.601562 C 372.007812 321.746094 374.5 325.332031 376.585938 329.136719 C 378.675781 332.941406 379.773438 335.429688 380.796875 338.761719 C 381.824219 342.089844 381.164062 340.1875 381.347656 340.882812 C 381.640625 342.089844 381.789062 342.859375 382.007812 344.066406 C 382.667969 347.285156 383.214844 350.503906 383.800781 353.761719 C 384.386719 357.015625 385.265625 362.175781 385.960938 366.417969 C 386.769531 371.25 387.539062 376.078125 388.34375 380.90625 C 389.148438 385.992188 389.953125 391.042969 390.761719 396.128906 C 391.53125 400.992188 392.300781 405.898438 393.066406 410.800781 C 393.726562 415.152344 394.421875 419.507812 395.082031 423.859375 C 395.59375 427.226562 396.109375 430.628906 396.621094 433.996094 C 396.949219 436.042969 397.242188 438.09375 397.535156 440.179688 C 397.828125 442.261719 397.609375 440.691406 397.644531 440.945312 C 397.792969 441.898438 399.292969 441.789062 399.148438 440.835938 C 398.890625 439.152344 398.636719 437.472656 398.378906 435.789062 C 397.902344 432.679688 397.425781 429.566406 396.949219 426.421875 C 396.328125 422.25 395.667969 418.042969 395.007812 413.871094 C 394.277344 409.042969 393.507812 404.214844 392.738281 399.347656 C 391.933594 394.261719 391.125 389.214844 390.320312 384.128906 C 389.515625 379.1875 388.710938 374.210938 387.902344 369.273438 C 387.171875 364.847656 386.4375 360.457031 385.667969 356.03125 C 385.082031 352.554688 384.460938 349.078125 383.800781 345.640625 C 383.363281 343.445312 382.960938 341.210938 382.410156 339.015625 C 381.933594 337.1875 381.199219 335.46875 380.433594 333.710938 C 378.710938 329.722656 376.621094 325.882812 374.058594 322.371094 C 371.496094 318.859375 371.421875 319.003906 369.957031 317.46875 C 368.492188 315.929688 368.34375 317.90625 369.003906 318.601562 Z M 369.003906 318.601562 " fill-opacity="1" fill-rule="nonzero"/><path fill="#af2262" d="M 398.011719 440.289062 C 389.589844 445.152344 381.382812 450.3125 373.328125 455.726562 C 365.269531 461.140625 373.398438 457.484375 374.167969 456.933594 C 382.191406 451.484375 390.429688 446.324219 398.855469 441.496094 C 407.277344 436.664062 398.855469 439.777344 398.011719 440.289062 Z M 398.011719 440.289062 " fill-opacity="1" fill-rule="nonzero"/><path fill="#af2262" d="M 395.851562 439.664062 C 389.773438 439.703125 383.65625 440.070312 377.613281 440.726562 C 376.660156 440.835938 376.769531 442.335938 377.722656 442.226562 C 383.765625 441.570312 389.882812 441.238281 395.960938 441.164062 C 396.914062 441.164062 396.804688 439.664062 395.851562 439.664062 Z M 395.851562 439.664062 " fill-opacity="1" fill-rule="nonzero"/><path fill="#af2262" d="M 394.714844 448.738281 C 394.679688 448.8125 394.605469 448.921875 394.53125 448.996094 L 394.644531 448.847656 C 394.277344 449.433594 393.835938 449.945312 393.324219 450.386719 C 392.8125 450.824219 393.140625 450.75 393.140625 450.933594 C 393.140625 451.117188 393.25 451.335938 393.398438 451.445312 C 393.542969 451.554688 393.726562 451.628906 393.945312 451.628906 L 394.128906 451.628906 C 394.238281 451.554688 394.351562 451.484375 394.460938 451.375 C 395.082031 450.789062 395.59375 450.128906 396.035156 449.398438 C 396.472656 448.667969 396.109375 448.996094 396.035156 448.8125 C 395.960938 448.628906 395.816406 448.445312 395.667969 448.375 C 395.523438 448.300781 395.265625 448.265625 395.082031 448.375 C 394.898438 448.484375 394.753906 448.59375 394.644531 448.738281 Z M 394.714844 448.738281 " fill-opacity="1" fill-rule="nonzero"/><path fill="#af2262" d="M 445.882812 429.859375 C 449.214844 437.691406 452.144531 445.703125 454.671875 453.863281 C 457.199219 462.019531 456.066406 458.507812 456.726562 460.847656 C 457.382812 463.191406 458.371094 461.289062 458.117188 460.335938 C 455.847656 452.140625 453.136719 444.019531 450.023438 436.082031 C 449.144531 433.8125 448.226562 431.582031 447.273438 429.347656 C 446.910156 428.46875 445.480469 428.945312 445.882812 429.859375 Z M 445.882812 429.859375 " fill-opacity="1" fill-rule="nonzero"/><path fill="#af2262" d="M 458.664062 469.375 C 458.777344 470.800781 458.886719 472.226562 458.996094 473.65625 C 459.105469 475.082031 459.398438 474.386719 459.800781 474.351562 C 460.203125 474.3125 460.535156 473.984375 460.496094 473.546875 C 460.386719 472.117188 460.277344 470.691406 460.167969 469.265625 C 460.058594 467.835938 459.765625 468.53125 459.363281 468.570312 C 458.960938 468.605469 458.628906 468.933594 458.664062 469.375 Z M 458.664062 469.375 " fill-opacity="1" fill-rule="nonzero"/><path fill="#3b4793" d="M 615.316406 389.945312 L 560.816406 481.667969 C 559.023438 484.667969 555.542969 486.203125 552.101562 485.507812 L 490.789062 473.070312 C 485.183594 471.933594 482.4375 465.605469 485.402344 460.738281 L 541.257812 369.273438 C 543.054688 366.308594 546.53125 364.808594 549.902344 365.503906 L 609.824219 377.652344 C 615.355469 378.785156 618.136719 385.042969 615.242188 389.871094 Z M 615.316406 389.945312 " fill-opacity="1" fill-rule="nonzero"/><path fill="#ffc7c7" d="M 598.945312 438.75 C 598.945312 438.75 601.289062 426.496094 599.421875 421.921875 C 597.515625 417.347656 591.398438 404.03125 588.910156 405.605469 C 586.417969 407.175781 586.308594 410.175781 586.089844 411.382812 C 585.871094 412.628906 590.339844 423.054688 590.300781 423.96875 C 590.226562 424.886719 589.128906 431.140625 589.128906 431.140625 C 589.128906 431.140625 583.746094 423.164062 583.304688 422.945312 C 582.867188 422.726562 568.839844 414.53125 566.824219 414.789062 C 564.773438 415.042969 563.710938 414.714844 562.796875 417.128906 C 561.878906 419.542969 563.5625 421.445312 563.5625 421.445312 C 563.5625 421.445312 558.800781 423.898438 558.875 427.300781 C 558.949219 430.703125 561.804688 432.09375 561.804688 432.09375 C 561.804688 432.09375 566.824219 440.472656 567.226562 443.542969 C 567.628906 446.617188 568.507812 450.679688 568.507812 450.679688 C 568.507812 450.679688 547.742188 437.875 546.460938 440.875 C 545.175781 443.875 544.773438 443.875 547.523438 447.714844 C 550.269531 451.519531 554.921875 454.960938 555.214844 456.277344 C 555.542969 457.59375 554.699219 466.738281 564.515625 472.117188 C 574.332031 477.496094 582.132812 471.714844 589.972656 458.875 C 597.773438 446.03125 598.945312 438.75 598.945312 438.75 Z M 598.945312 438.75 " fill-opacity="1" fill-rule="nonzero"/><path fill="#e8707c" d="M 562.574219 422.984375 C 569.496094 427.152344 574.625 434.03125 576.894531 441.75 C 577.117188 442.519531 578.066406 442.921875 578.800781 442.667969 C 579.53125 442.410156 579.9375 441.53125 579.714844 440.761719 C 577.226562 432.238281 571.476562 424.886719 563.855469 420.3125 C 563.160156 419.910156 562.171875 420.3125 561.878906 421.007812 C 561.585938 421.703125 561.878906 422.578125 562.574219 422.984375 Z M 562.574219 422.984375 " fill-opacity="1" fill-rule="nonzero"/><path fill="#3b4793" d="M 405.484375 257.832031 C 405.484375 257.832031 399 209.71875 415.960938 183.269531 C 432.882812 156.816406 463.867188 141.195312 491.375 149.132812 C 518.917969 157.070312 530.34375 183.085938 530.085938 201.597656 C 529.832031 220.109375 519.941406 253 520.199219 261.050781 C 520.453125 269.101562 521.664062 289.367188 529.757812 297.785156 C 537.851562 306.199219 542.101562 309.785156 540.636719 314.648438 C 539.171875 319.515625 540.234375 322.664062 540.234375 322.664062 C 540.234375 322.664062 555.542969 334.699219 558.800781 342.675781 C 562.0625 350.613281 559.207031 346.847656 562.136719 356.980469 C 565.066406 367.113281 562.941406 369.824219 560.78125 369.164062 C 558.65625 368.503906 543.640625 345.527344 541.734375 346.222656 C 539.867188 346.917969 495.253906 363.75 476.941406 368.210938 C 458.628906 372.675781 449.875 392.945312 411.492188 371.46875 C 373.070312 349.992188 370.6875 343.625 359.480469 339.929688 C 348.308594 336.234375 349.117188 326.871094 337.945312 327.492188 C 326.773438 328.113281 326.589844 335.359375 326.773438 328.113281 C 326.957031 320.871094 347.90625 297.601562 351.828125 293.464844 C 355.746094 289.332031 356.769531 283.660156 362.632812 277.441406 C 368.492188 271.222656 400.027344 261.453125 405.449219 257.757812 Z M 405.484375 257.832031 " fill-opacity="1" fill-rule="nonzero"/><path fill="#202a5e" d="M 500.308594 333.820312 C 500.308594 333.820312 443.613281 349.957031 431.597656 352.335938 C 419.585938 354.710938 407.863281 357.164062 407.863281 357.164062 L 368.894531 294.382812 L 441.453125 344.320312 L 405.117188 359.320312 L 444.746094 369.566406 L 500.273438 333.820312 Z M 500.308594 333.820312 " fill-opacity="1" fill-rule="nonzero"/><path fill="#ffc7c7" d="M 490.238281 285.601562 C 481.226562 289.039062 467.015625 284.136719 456.210938 271.992188 C 445.40625 259.84375 439.179688 235.550781 446.324219 212.828125 C 446.871094 211.039062 447.566406 209.355469 448.335938 207.707031 C 454.34375 195.160156 466.175781 186.925781 473.644531 182.71875 C 478.589844 179.9375 484.304688 178.914062 489.871094 179.792969 C 503.898438 182.0625 510.675781 191.902344 513.714844 203.71875 C 517.230469 217.402344 515.691406 233.722656 514.484375 243.78125 C 511.992188 264.308594 499.246094 282.125 490.238281 285.5625 Z M 490.238281 285.601562 " fill-opacity="1" fill-rule="nonzero"/><path fill="#ffffff" d="M 513.753906 203.757812 C 491.886719 199.730469 466.796875 203.355469 448.375 207.707031 C 454.378906 195.160156 466.210938 186.925781 473.683594 182.71875 C 478.628906 179.9375 484.339844 178.914062 489.910156 179.792969 C 503.9375 182.0625 510.710938 191.902344 513.753906 203.71875 Z M 513.753906 203.757812 " fill-opacity="1" fill-rule="nonzero"/><path fill="#e8707c" d="M 487.160156 229.695312 C 487.160156 233.867188 490.898438 236.320312 494.265625 237.890625 C 497.636719 239.464844 494.960938 238.183594 495.21875 238.367188 C 495.476562 238.550781 495.511719 238.585938 495.476562 238.585938 C 495.621094 238.769531 495.585938 238.769531 495.546875 238.695312 C 495.695312 239.28125 495.253906 240.015625 494.890625 240.488281 C 493.902344 241.804688 492.507812 242.722656 491.117188 243.636719 C 489.503906 244.695312 491.226562 247.148438 492.839844 246.085938 C 494.414062 245.0625 496.023438 243.964844 497.160156 242.429688 C 498.296875 240.890625 499.246094 238.367188 497.671875 236.609375 C 496.097656 234.855469 496.097656 235.511719 495.253906 235.074219 C 494.414062 234.671875 493.535156 234.269531 492.765625 233.722656 C 491.335938 232.695312 490.128906 231.34375 490.128906 229.511719 C 490.128906 228.707031 489.285156 228.085938 488.515625 228.125 C 487.746094 228.160156 487.125 228.890625 487.125 229.734375 Z M 487.160156 229.695312 " fill-opacity="1" fill-rule="nonzero"/><path fill="#c64f60" d="M 495.804688 262.113281 C 495.183594 263.136719 494.011719 264.308594 492.472656 265.367188 C 488.332031 268.183594 481.519531 269.976562 476.246094 264.527344 C 476.101562 264.378906 475.953125 264.234375 475.84375 264.085938 C 470.644531 258.378906 471.484375 251.722656 474.195312 250.515625 C 475 250.148438 475.953125 250.292969 476.980469 251.0625 C 481.558594 254.5 493.09375 255.890625 493.09375 255.890625 C 494.195312 256.222656 495.074219 256.515625 495.730469 256.917969 C 497.453125 257.941406 497.453125 259.367188 495.804688 262.113281 Z M 495.804688 262.113281 " fill-opacity="1" fill-rule="nonzero"/><path fill="#ffffff" d="M 495.695312 256.917969 C 492.546875 258.636719 488.148438 259.039062 483.683594 257.683594 C 479.214844 256.332031 475.84375 253.625 474.160156 250.515625 C 474.964844 250.148438 475.917969 250.292969 476.941406 251.0625 C 481.519531 254.5 493.058594 255.890625 493.058594 255.890625 C 494.15625 256.222656 495.035156 256.515625 495.695312 256.917969 Z M 495.695312 256.917969 " fill-opacity="1" fill-rule="nonzero"/><path fill="#e8707c" d="M 492.472656 265.40625 C 488.332031 268.222656 481.519531 270.015625 476.246094 264.5625 C 476.101562 264.417969 475.953125 264.269531 475.84375 264.125 C 478.515625 261.820312 482.804688 260.976562 487.050781 262.257812 C 489.210938 262.917969 491.082031 264.015625 492.507812 265.40625 Z M 492.472656 265.40625 " fill-opacity="1" fill-rule="nonzero"/><path fill="#6d78cc" d="M 402.738281 260.574219 C 403.359375 262.808594 404.277344 264.964844 405.410156 266.976562 C 406.546875 268.988281 406.875 267.820312 407.5 267.34375 C 408.121094 266.867188 408.269531 265.988281 407.863281 265.257812 C 407.460938 264.527344 407.609375 264.78125 407.460938 264.527344 C 407.425781 264.417969 407.425781 264.453125 407.5 264.601562 C 407.460938 264.527344 407.425781 264.453125 407.390625 264.378906 C 407.316406 264.269531 407.277344 264.160156 407.207031 264.050781 C 406.984375 263.574219 406.765625 263.101562 406.582031 262.625 C 406.179688 261.636719 405.8125 260.613281 405.558594 259.585938 C 405.300781 258.5625 404.347656 258.378906 403.652344 258.671875 C 402.957031 258.964844 402.519531 259.769531 402.738281 260.574219 Z M 402.738281 260.574219 " fill-opacity="1" fill-rule="nonzero"/><path fill="#6d78cc" d="M 411.308594 276.378906 C 414.824219 284.648438 420.722656 291.671875 427.644531 297.34375 C 434.859375 303.273438 443.171875 307.660156 451.707031 311.394531 C 456.578125 313.515625 461.523438 315.453125 466.46875 317.394531 C 471.410156 319.332031 468.078125 317.46875 468.445312 316.699219 C 468.8125 315.929688 468.480469 315.015625 467.75 314.722656 C 459.105469 311.355469 450.460938 307.992188 442.332031 303.5625 C 434.199219 299.136719 427.460938 294.199219 421.78125 287.539062 C 418.671875 283.882812 416.03125 279.855469 414.128906 275.429688 C 413.796875 274.699219 413.03125 274.222656 412.222656 274.515625 C 411.417969 274.808594 410.976562 275.683594 411.308594 276.417969 Z M 411.308594 276.378906 " fill-opacity="1" fill-rule="nonzero"/><path fill="#6d78cc" d="M 448.703125 297.820312 C 452.511719 300.417969 456.46875 302.757812 460.605469 304.808594 C 464.746094 306.855469 462.253906 304.808594 462.585938 304.113281 C 462.914062 303.417969 462.585938 302.464844 461.890625 302.136719 C 457.96875 300.234375 454.199219 298.039062 450.609375 295.589844 C 447.019531 293.136719 449.070312 295.113281 448.484375 295.769531 C 447.898438 296.429688 447.972656 297.417969 448.667969 297.894531 Z M 448.703125 297.820312 " fill-opacity="1" fill-rule="nonzero"/><path fill="#6d78cc" d="M 359.554688 286.113281 C 362.265625 294.050781 365.414062 301.84375 369.042969 309.382812 C 372.703125 317.027344 376.769531 324.492188 381.3125 331.664062 C 383.839844 335.652344 386.476562 339.566406 389.257812 343.40625 C 390.394531 344.945312 392.847656 343.261719 391.714844 341.6875 C 386.804688 334.917969 382.300781 327.894531 378.199219 320.613281 C 374.132812 313.371094 370.507812 305.90625 367.320312 298.257812 C 365.523438 293.941406 363.875 289.550781 362.375 285.089844 C 361.753906 283.257812 358.933594 284.246094 359.554688 286.074219 Z M 359.554688 286.113281 " fill-opacity="1" fill-rule="nonzero"/><path fill="#6d78cc" d="M 368.015625 312.527344 C 368.125 316.078125 368.457031 319.664062 369.078125 323.175781 C 369.699219 326.6875 369.808594 324.636719 370.6875 324.566406 C 371.570312 324.492188 372.226562 323.761719 372.082031 322.957031 C 371.457031 319.441406 371.09375 315.894531 371.019531 312.308594 C 371.019531 311.503906 370.214844 310.882812 369.40625 310.917969 C 368.601562 310.953125 368.015625 311.6875 368.015625 312.527344 Z M 368.015625 312.527344 " fill-opacity="1" fill-rule="nonzero"/><path fill="#6d78cc" d="M 519.210938 328.039062 C 506.574219 331.84375 493.71875 334.957031 480.863281 338.027344 C 468.003906 341.066406 455.148438 344.101562 442.476562 347.722656 C 435.371094 349.773438 428.300781 352.003906 421.34375 354.566406 C 419.550781 355.222656 420.539062 358.042969 422.332031 357.382812 C 434.710938 352.847656 447.421875 349.296875 460.203125 346.078125 C 473.023438 342.859375 485.914062 339.96875 498.734375 336.75 C 505.914062 334.917969 513.09375 333.015625 520.199219 330.859375 C 520.96875 330.636719 521.371094 329.6875 521.113281 328.957031 C 520.859375 328.222656 519.980469 327.820312 519.210938 328.039062 Z M 519.210938 328.039062 " fill-opacity="1" fill-rule="nonzero"/><path fill="#6d78cc" d="M 414.164062 329.871094 C 423.652344 333.636719 433.101562 337.625 442.402344 341.832031 C 445.039062 343.003906 447.679688 344.210938 450.316406 345.457031 C 452.074219 346.261719 453.355469 343.589844 451.597656 342.75 C 442.332031 338.46875 432.953125 334.371094 423.503906 330.457031 C 420.832031 329.359375 418.121094 328.261719 415.445312 327.199219 C 412.773438 326.136719 413.835938 327.125 413.46875 327.894531 C 413.101562 328.664062 413.433594 329.578125 414.164062 329.871094 Z M 414.164062 329.871094 " fill-opacity="1" fill-rule="nonzero"/><path fill="#202a5e" d="M 405.484375 257.832031 C 405.484375 257.832031 436.433594 295.332031 458.59375 303.34375 C 480.789062 311.320312 504.667969 303.746094 504.667969 303.746094 L 460.167969 326.429688 C 460.167969 326.429688 430.867188 310.441406 418.558594 289.550781 C 406.21875 268.699219 405.484375 257.832031 405.484375 257.832031 Z M 405.484375 257.832031 " fill-opacity="1" fill-rule="nonzero"/></svg>